<svg width="188" height="19" viewBox="0 0 188 19" fill="none" xmlns="http://www.w3.org/2000/svg">
<path d="M0.824 18.5V1.7H4.4L9.296 8.948L14.192 1.7H17.744V18.5H14.48V6.836L9.296 14.468L4.112 6.86V18.5H0.824ZM26.3701 18.788C25.1861 18.788 24.1381 18.524 23.2261 17.996C22.3141 17.452 21.5941 16.708 21.0661 15.764C20.5541 14.82 20.2981 13.732 20.2981 12.5C20.2981 11.268 20.5621 10.18 21.0901 9.236C21.6341 8.292 22.3701 7.556 23.2981 7.028C24.2421 6.484 25.3221 6.212 26.5381 6.212C27.5941 6.212 28.5621 6.492 29.4421 7.052C30.3381 7.596 31.0501 8.404 31.5781 9.476C32.1221 10.532 32.3941 11.82 32.3941 13.34H23.2981L23.5861 13.052C23.5861 13.644 23.7301 14.164 24.0181 14.612C24.3221 15.044 24.7061 15.38 25.1701 15.62C25.6501 15.844 26.1621 15.956 26.7061 15.956C27.3621 15.956 27.8981 15.82 28.3141 15.548C28.7301 15.26 29.0501 14.892 29.2741 14.444L32.1061 15.548C31.7701 16.22 31.3301 16.804 30.7861 17.3C30.2581 17.78 29.6261 18.148 28.8901 18.404C28.1541 18.66 27.3141 18.788 26.3701 18.788ZM23.7541 11.276L23.4661 10.988H29.2501L28.9861 11.276C28.9861 10.7 28.8501 10.244 28.5781 9.908C28.3061 9.556 27.9701 9.3 27.5701 9.14C27.1861 8.98 26.8101 8.9 26.4421 8.9C26.0741 8.9 25.6821 8.98 25.2661 9.14C24.8501 9.3 24.4901 9.556 24.1861 9.908C23.8981 10.244 23.7541 10.7 23.7541 11.276ZM39.1792 18.788C37.8512 18.788 36.8432 18.46 36.1552 17.804C35.4832 17.148 35.1472 16.212 35.1472 14.996V2.756H38.3152V14.3C38.3152 14.812 38.4272 15.204 38.6512 15.476C38.8752 15.732 39.2032 15.86 39.6352 15.86C39.7952 15.86 39.9712 15.828 40.1632 15.764C40.3552 15.684 40.5552 15.572 40.7632 15.428L41.8672 17.804C41.4832 18.092 41.0512 18.324 40.5712 18.5C40.1072 18.692 39.6432 18.788 39.1792 18.788ZM33.2032 9.188V6.5H41.3152V9.188H33.2032ZM50.9285 18.5L50.8325 16.076V12.428C50.8325 11.708 50.7525 11.092 50.5925 10.58C50.4485 10.068 50.2085 9.676 49.8725 9.404C49.5525 9.116 49.1125 8.972 48.5525 8.972C48.0405 8.972 47.5765 9.084 47.1605 9.308C46.7445 9.532 46.3925 9.876 46.1045 10.34L43.3205 9.38C43.5445 8.868 43.8725 8.372 44.3045 7.892C44.7365 7.396 45.2965 6.996 45.9845 6.692C46.6885 6.372 47.5445 6.212 48.5525 6.212C49.7685 6.212 50.7765 6.444 51.5765 6.908C52.3925 7.372 52.9925 8.028 53.3765 8.876C53.7765 9.708 53.9685 10.7 53.9525 11.852L53.8805 18.5H50.9285ZM47.5685 18.788C46.1285 18.788 45.0085 18.468 44.2085 17.828C43.4245 17.188 43.0325 16.284 43.0325 15.116C43.0325 13.836 43.4565 12.876 44.3045 12.236C45.1685 11.58 46.3765 11.252 47.9285 11.252H50.9765V13.604H49.0325C47.9925 13.604 47.2725 13.732 46.8725 13.988C46.4725 14.228 46.2725 14.572 46.2725 15.02C46.2725 15.372 46.4325 15.652 46.7525 15.86C47.0725 16.052 47.5205 16.148 48.0965 16.148C48.6245 16.148 49.0885 16.028 49.4885 15.788C49.9045 15.532 50.2325 15.212 50.4725 14.828C50.7125 14.428 50.8325 14.02 50.8325 13.604H51.6005C51.6005 15.236 51.2885 16.508 50.6645 17.42C50.0565 18.332 49.0245 18.788 47.5685 18.788ZM56.4774 18.5V1.7H59.6454V18.5H56.4774ZM68.5584 18.5V1.7H74.7984C75.9824 1.7 77.0304 1.94 77.9424 2.42C78.8544 2.884 79.5664 3.54 80.0784 4.388C80.5904 5.22 80.8464 6.188 80.8464 7.292C80.8464 8.38 80.5984 9.348 80.1024 10.196C79.6064 11.044 78.9264 11.716 78.0624 12.212C77.1984 12.692 76.1984 12.932 75.0624 12.932H71.8464V18.5H68.5584ZM71.8464 9.908H74.9904C75.7264 9.908 76.3264 9.668 76.7904 9.188C77.2704 8.692 77.5104 8.06 77.5104 7.292C77.5104 6.524 77.2464 5.9 76.7184 5.42C76.2064 4.94 75.5424 4.7 74.7264 4.7H71.8464V9.908ZM84.7484 12.188C84.7484 10.892 84.9964 9.82 85.4924 8.972C86.0044 8.124 86.6524 7.492 87.4364 7.076C88.2364 6.66 89.0684 6.452 89.9324 6.452V9.524C89.1964 9.524 88.5004 9.612 87.8444 9.788C87.2044 9.964 86.6844 10.252 86.2844 10.652C85.8844 11.052 85.6844 11.564 85.6844 12.188H84.7484ZM82.5164 18.5V6.5H85.6844V18.5H82.5164ZM97.2502 18.788C96.0342 18.788 94.9462 18.524 93.9862 17.996C93.0422 17.452 92.2982 16.708 91.7542 15.764C91.2262 14.82 90.9622 13.732 90.9622 12.5C90.9622 11.268 91.2262 10.18 91.7542 9.236C92.2822 8.292 93.0182 7.556 93.9622 7.028C94.9062 6.484 95.9862 6.212 97.2022 6.212C98.4342 6.212 99.5222 6.484 100.466 7.028C101.41 7.556 102.146 8.292 102.674 9.236C103.202 10.18 103.466 11.268 103.466 12.5C103.466 13.732 103.202 14.82 102.674 15.764C102.146 16.708 101.41 17.452 100.466 17.996C99.5382 18.524 98.4662 18.788 97.2502 18.788ZM97.2502 15.86C97.8422 15.86 98.3622 15.716 98.8102 15.428C99.2582 15.14 99.6022 14.748 99.8422 14.252C100.098 13.74 100.226 13.156 100.226 12.5C100.226 11.844 100.098 11.268 99.8422 10.772C99.5862 10.26 99.2262 9.86 98.7622 9.572C98.3142 9.284 97.7942 9.14 97.2022 9.14C96.6262 9.14 96.1062 9.284 95.6422 9.572C95.1942 9.86 94.8422 10.26 94.5862 10.772C94.3302 11.268 94.2022 11.844 94.2022 12.5C94.2022 13.156 94.3302 13.74 94.5862 14.252C94.8422 14.748 95.2022 15.14 95.6662 15.428C96.1302 15.716 96.6582 15.86 97.2502 15.86ZM114.1 18.5L113.932 16.268V1.7H117.1V18.5H114.1ZM110.332 18.788C109.228 18.788 108.268 18.532 107.452 18.02C106.652 17.508 106.028 16.78 105.58 15.836C105.132 14.892 104.908 13.78 104.908 12.5C104.908 11.204 105.132 10.092 105.58 9.164C106.028 8.22 106.652 7.492 107.452 6.98C108.268 6.468 109.228 6.212 110.332 6.212C111.34 6.212 112.188 6.468 112.876 6.98C113.58 7.492 114.116 8.22 114.484 9.164C114.852 10.092 115.036 11.204 115.036 12.5C115.036 13.78 114.852 14.892 114.484 15.836C114.116 16.78 113.58 17.508 112.876 18.02C112.188 18.532 111.34 18.788 110.332 18.788ZM111.148 15.884C111.692 15.884 112.172 15.74 112.588 15.452C113.02 15.164 113.356 14.764 113.596 14.252C113.836 13.74 113.956 13.156 113.956 12.5C113.956 11.844 113.836 11.26 113.596 10.748C113.356 10.236 113.02 9.844 112.588 9.572C112.172 9.284 111.684 9.14 111.124 9.14C110.548 9.14 110.044 9.284 109.612 9.572C109.18 9.844 108.836 10.236 108.58 10.748C108.324 11.26 108.196 11.844 108.196 12.5C108.196 13.156 108.324 13.74 108.58 14.252C108.836 14.764 109.18 15.164 109.612 15.452C110.06 15.74 110.572 15.884 111.148 15.884ZM127.749 18.5L127.557 16.292V6.5H130.725V18.5H127.749ZM119.613 12.644V6.5H122.781V12.644H119.613ZM122.781 12.644C122.781 13.444 122.869 14.076 123.045 14.54C123.237 14.988 123.501 15.316 123.837 15.524C124.189 15.716 124.581 15.812 125.013 15.812C125.845 15.828 126.477 15.58 126.909 15.068C127.341 14.54 127.557 13.78 127.557 12.788H128.637C128.637 14.068 128.445 15.156 128.061 16.052C127.677 16.932 127.149 17.612 126.477 18.092C125.805 18.556 125.013 18.788 124.101 18.788C123.141 18.788 122.325 18.596 121.653 18.212C120.981 17.828 120.469 17.236 120.117 16.436C119.781 15.62 119.613 14.572 119.613 13.292V12.644H122.781ZM139.254 18.788C138.006 18.788 136.894 18.524 135.918 17.996C134.942 17.452 134.182 16.708 133.638 15.764C133.094 14.804 132.822 13.716 132.822 12.5C132.822 11.268 133.094 10.18 133.638 9.236C134.182 8.292 134.934 7.556 135.894 7.028C136.854 6.484 137.958 6.212 139.206 6.212C140.406 6.212 141.502 6.508 142.494 7.1C143.486 7.692 144.206 8.548 144.654 9.668L141.678 10.724C141.454 10.26 141.102 9.892 140.622 9.62C140.158 9.332 139.638 9.188 139.062 9.188C138.47 9.188 137.95 9.332 137.502 9.62C137.054 9.892 136.702 10.276 136.446 10.772C136.19 11.268 136.062 11.844 136.062 12.5C136.062 13.156 136.19 13.732 136.446 14.228C136.702 14.708 137.062 15.092 137.526 15.38C137.99 15.668 138.518 15.812 139.11 15.812C139.686 15.812 140.206 15.66 140.67 15.356C141.15 15.052 141.502 14.652 141.726 14.156L144.726 15.212C144.262 16.348 143.534 17.228 142.542 17.852C141.566 18.476 140.47 18.788 139.254 18.788ZM151.515 18.788C150.187 18.788 149.179 18.46 148.491 17.804C147.819 17.148 147.483 16.212 147.483 14.996V2.756H150.651V14.3C150.651 14.812 150.763 15.204 150.987 15.476C151.211 15.732 151.539 15.86 151.971 15.86C152.131 15.86 152.307 15.828 152.499 15.764C152.691 15.684 152.891 15.572 153.099 15.428L154.203 17.804C153.819 18.092 153.387 18.324 152.907 18.5C152.443 18.692 151.979 18.788 151.515 18.788ZM145.539 9.188V6.5H153.651V9.188H145.539ZM156.419 18.5V6.5H159.587V18.5H156.419ZM158.003 4.556C157.523 4.556 157.099 4.38 156.731 4.028C156.363 3.66 156.179 3.228 156.179 2.732C156.179 2.236 156.363 1.812 156.731 1.46C157.099 1.092 157.523 0.907999 158.003 0.907999C158.499 0.907999 158.923 1.092 159.275 1.46C159.643 1.812 159.827 2.236 159.827 2.732C159.827 3.228 159.643 3.66 159.275 4.028C158.923 4.38 158.499 4.556 158.003 4.556ZM168.149 18.788C166.933 18.788 165.845 18.524 164.885 17.996C163.941 17.452 163.197 16.708 162.653 15.764C162.125 14.82 161.861 13.732 161.861 12.5C161.861 11.268 162.125 10.18 162.653 9.236C163.181 8.292 163.917 7.556 164.861 7.028C165.805 6.484 166.885 6.212 168.101 6.212C169.333 6.212 170.421 6.484 171.365 7.028C172.309 7.556 173.045 8.292 173.573 9.236C174.101 10.18 174.365 11.268 174.365 12.5C174.365 13.732 174.101 14.82 173.573 15.764C173.045 16.708 172.309 17.452 171.365 17.996C170.437 18.524 169.365 18.788 168.149 18.788ZM168.149 15.86C168.741 15.86 169.261 15.716 169.709 15.428C170.157 15.14 170.501 14.748 170.741 14.252C170.997 13.74 171.125 13.156 171.125 12.5C171.125 11.844 170.997 11.268 170.741 10.772C170.485 10.26 170.125 9.86 169.661 9.572C169.213 9.284 168.693 9.14 168.101 9.14C167.525 9.14 167.005 9.284 166.541 9.572C166.093 9.86 165.741 10.26 165.485 10.772C165.229 11.268 165.101 11.844 165.101 12.5C165.101 13.156 165.229 13.74 165.485 14.252C165.741 14.748 166.101 15.14 166.565 15.428C167.029 15.716 167.557 15.86 168.149 15.86ZM176.454 18.5V6.5H179.43L179.622 8.708V18.5H176.454ZM184.398 18.5V12.356H187.566V18.5H184.398ZM184.398 12.356C184.398 11.54 184.302 10.908 184.11 10.46C183.934 10.012 183.678 9.692 183.342 9.5C183.006 9.292 182.614 9.188 182.166 9.188C181.35 9.172 180.718 9.42 180.27 9.932C179.838 10.444 179.622 11.204 179.622 12.212H178.566C178.566 10.932 178.75 9.852 179.118 8.972C179.502 8.076 180.03 7.396 180.702 6.932C181.39 6.452 182.19 6.212 183.102 6.212C184.046 6.212 184.854 6.404 185.526 6.788C186.198 7.172 186.71 7.772 187.062 8.588C187.414 9.388 187.582 10.428 187.566 11.708V12.356H184.398Z" fill="black"/>
</svg>
